<?xml version="1.0" standalone="no"?><!DOCTYPE svg PUBLIC "-//W3C//DTD SVG 1.1//EN" "http://www.w3.org/Graphics/SVG/1.1/DTD/svg11.dtd"><svg class="icon" width="200px" height="200.00px" viewBox="0 0 1024 1024" version="1.1" xmlns="http://www.w3.org/2000/svg"><path fill="#fe39a8" d="M280.7 64C161.2 64 64.3 160.9 64.3 280.4s96.9 216.4 216.4 216.4h216.4V280.4C497.1 160.9 400.2 64 280.7 64zM64.3 743.6c0 119.5 96.9 216.4 216.4 216.4s216.4-96.9 216.4-216.4V527.2H280.7c-119.5 0-216.4 96.9-216.4 216.4zM743.3 64c-119.5 0-216.4 96.9-216.4 216.4v216.4h216.4c119.5 0 216.4-96.9 216.4-216.4S862.8 64 743.3 64zM743.3 527.2H526.9v216.4c0 119.5 96.9 216.4 216.4 216.4s216.4-96.9 216.4-216.4-96.9-216.4-216.4-216.4z" /></svg>